<?xml version="1.0" encoding="utf-8"?>
<!-- Generator: Adobe Illustrator 25.1.0, SVG Export Plug-In . SVG Version: 6.00 Build 0)  -->
<svg version="1.1" id="Layer_1" xmlns="http://www.w3.org/2000/svg" xmlns:xlink="http://www.w3.org/1999/xlink" x="0px" y="0px"
	 viewBox="0 0 173.6 39" style="enable-background:new 0 0 173.6 39;" xml:space="preserve">
<style type="text/css">
	.st0{fill:#FFFFFF;}
</style>
<g id="Layer_2_1_">
	<g id="Layer_1-2">
		<path class="st0" d="M4.2,26.4c-0.4-0.2-0.7-0.5-1-0.8C1,23.5-0.1,20.5,0,17.4c-0.1-3,1.1-5.9,3.2-8c2.2-2.1,5.1-3.2,8.2-3.1
			c1.8,0,3.6,0.4,5.4,0.9c0.5,0.2,1.1,0.2,1.6,0.1c0.4-0.1,0.8-0.2,1.1-0.3H20v6.2h-0.4c-0.4-1.7-1.5-3.3-2.9-4.2
			C15.3,8,13.6,7.6,12,7.6c-2.3-0.1-4.5,0.8-6,2.6c-1.5,2.1-2.3,4.7-2.2,7.3C3.7,20,4.5,22.5,6,24.6l0,0c1.6,1.6,3.8,2.4,6,2.4
			c1.4,0,2.8-0.3,4.1-0.8c1.4-0.6,2.6-1.5,3.7-2.5l0.6,0.6c-1.2,1.3-2.6,2.4-4.2,3.2c-1.6,0.7-3.3,1-5,1C8.8,28.4,6.3,27.7,4.2,26.4
			L4.2,26.4z"/>
		<path class="st0" d="M24.4,26c-1.6-1.5-2.5-3.6-2.4-5.8c-0.1-2.2,0.8-4.2,2.4-5.7c1.7-1.5,3.9-2.3,6.2-2.2
			c2.3-0.1,4.5,0.7,6.2,2.2c1.6,1.5,2.5,3.5,2.4,5.7c0.1,2.2-0.8,4.3-2.4,5.8c-1.7,1.5-3.9,2.3-6.2,2.2C28.4,28.3,26.1,27.5,24.4,26
			z M35,25.6c1.3-1.4,1.9-3.3,1.8-5.1c0-2.5-0.6-4.3-1.8-5.4c-1.2-1-2.8-1.6-4.4-1.5c-1.6-0.1-3.1,0.5-4.3,1.5
			c-1.1,1-1.6,2.8-1.6,5.4c-0.1,1.9,0.5,3.7,1.6,5.1c1.1,1.2,2.7,1.8,4.3,1.7C32.2,27.4,33.8,26.8,35,25.6z"/>
		<path class="st0" d="M54.1,12.3h6.1v0.2c-0.6,0-1.2,0.3-1.7,0.7c-0.5,0.7-0.8,1.6-0.7,2.5v12.6h-0.5L43.1,15.1v9.5
			c-0.1,0.9,0.2,1.8,0.7,2.6c0.5,0.5,1.1,0.8,1.8,0.7v0.2h-6.3V28c1-0.1,1.7-0.3,2-0.8c0.4-0.8,0.5-1.7,0.4-2.5V14
			c0-0.5-0.3-1-0.8-1.1c-0.5-0.2-1-0.3-1.5-0.3v-0.2h4.5c0.2,0,0.4,0.1,0.5,0.2l0.2,0.2l5.7,5.3l6.2,5.7v-8c0.1-0.9-0.1-1.8-0.6-2.6
			c-0.5-0.5-1.1-0.7-1.8-0.7V12.3z"/>
		<path class="st0" d="M60.5,12.3h6.7c3.6,0,6.3,0.7,8.1,2c1.9,1.4,2.9,3.6,2.8,5.9c0.1,2.3-1,4.4-2.8,5.8c-1.9,1.4-4.4,2.1-7.7,2.1
			h-7.2V28c1,0,1.7-0.2,1.9-0.5c0.3-0.6,0.4-1.2,0.3-1.9V14.9c0-0.6-0.1-1.3-0.3-1.9c-0.2-0.4-0.9-0.6-1.9-0.6V12.3z M65.6,25.9
			c0,0.5,0.1,0.9,0.2,1.3c0.2,0.4,1.2,0.6,3,0.5c1.8,0,3.5-0.8,4.7-2.1c1.3-1.5,2-3.4,1.9-5.4c0.1-2.1-0.8-4-2.3-5.4
			c-1.3-1.3-3-2.1-4.9-2.1c-1.7,0-2.6,0.1-2.7,0.5c0,0.4-0.1,0.8-0.1,1.1L65.6,25.9z"/>
		<path class="st0" d="M81,26c-1.6-1.5-2.5-3.6-2.4-5.7c-0.1-2.2,0.8-4.3,2.4-5.8c3.6-3,8.8-3,12.4,0c1.6,1.5,2.5,3.5,2.4,5.7
			c0.1,2.2-0.8,4.3-2.4,5.8C89.8,29,84.6,29,81,26z M91.6,25.7c1.3-1.4,1.9-3.3,1.8-5.1c0-2.5-0.6-4.3-1.8-5.4
			c-1.2-1-2.8-1.6-4.4-1.5c-1.6-0.1-3.1,0.5-4.3,1.5c-1.1,1-1.7,2.8-1.7,5.4c-0.1,1.9,0.5,3.7,1.7,5.1c1.1,1.2,2.7,1.8,4.3,1.7
			C88.8,27.4,90.4,26.8,91.6,25.7L91.6,25.7z"/>
		<path class="st0" d="M120.4,28.1h-6.6V28c1.2,0,1.9-0.1,2-0.3s-0.6-1-2-2.3l-2.5-2.2l-1.2-1.1l-0.6-0.5l-0.3-0.3l-0.2-0.1
			c-0.1-0.1-0.3-0.1-0.4,0c0,0,0,0,0,0l-0.2,0.2v4.4c-0.1,0.7,0.2,1.4,0.8,1.8c0.6,0.3,1.2,0.5,1.9,0.5v0.2H103V28
			c0.7,0,1.4-0.1,2.1-0.5c0.5-0.5,0.7-1.2,0.6-1.9V14.9c0.1-0.7-0.2-1.4-0.7-1.9c-0.6-0.3-1.3-0.5-2-0.5v-0.2h8.1v0.2
			c-0.6,0-1.3,0.2-1.8,0.5c-0.6,0.4-0.9,1.1-0.9,1.9v5l5.2-4.2c1.7-1.2,2.3-2.1,2.1-2.6c-0.3-0.4-0.9-0.6-1.9-0.6v-0.2h6.6v0.2
			c-0.6,0-1.2,0.1-1.7,0.3c-0.8,0.6-1.7,1.3-2.4,2l-6.1,5.3l6.9,6.5c0.9,0.9,2.2,1.4,3.5,1.5V28.1z"/>
		<path class="st0" d="M128.8,27.9c-1.2,0-1.9-0.2-2.1-0.5c-0.2-0.2-0.3-0.6-0.3-0.9V13.5c0-0.3,0.1-0.5,0.3-0.7
			c0.7-0.2,1.4-0.3,2.2-0.2v-0.2h-7.4v0.2c0.7,0,1.4,0,2,0.2c0.2,0.2,0.4,0.4,0.4,0.7v13.1c0,0.3-0.1,0.7-0.4,0.9
			c-0.3,0.3-1,0.4-2.1,0.5v0.2h7.4V27.9z"/>
		<path class="st0" d="M143.8,12.3h6.2v0.2c-0.6,0-1.2,0.3-1.7,0.7c-0.5,0.7-0.8,1.6-0.7,2.5v12.6h-0.5l-14.3-13.3v9.5
			c-0.1,0.9,0.1,1.8,0.7,2.6c0.5,0.5,1.1,0.8,1.8,0.7v0.2H129V28c1-0.1,1.7-0.3,2-0.8c0.4-0.8,0.5-1.7,0.4-2.5V14
			c0-0.5-0.3-1-0.8-1.1c-0.5-0.2-1-0.3-1.5-0.3v-0.2h4.5c0.2,0,0.4,0.1,0.5,0.2l0.2,0.2L140,18l6.1,5.7v-8c0.1-0.9-0.1-1.8-0.6-2.6
			c-0.5-0.5-1.1-0.7-1.8-0.7L143.8,12.3z"/>
		<path class="st0" d="M168.1,21.7c0.1-0.9-0.2-1.8-0.7-2.5c-0.6-0.5-1.4-0.7-2.2-0.5v-0.2h8.5v0.2c-0.6-0.1-1.3,0.1-1.8,0.6
			c-0.4,0.6-0.6,1.2-0.5,1.9v5.4c-2.5,1.4-5.4,2.1-8.3,2.1c-3.2,0.2-6.3-0.9-8.8-3c-2.2-2.1-3.4-5.1-3.3-8.1c-0.1-3,1.1-5.9,3.2-8
			c2.2-2.1,5.1-3.2,8.2-3.1c1.8,0,3.6,0.4,5.4,0.9c0.5,0.2,1.1,0.2,1.6,0.1c0.4-0.1,0.8-0.2,1.2-0.3h0.5v6.2h-0.4
			c-0.4-1.7-1.5-3.2-2.9-4.2c-1.4-0.9-3-1.4-4.7-1.4c-2.3-0.1-4.5,0.9-6,2.6c-1.5,2.1-2.3,4.7-2.2,7.3c-0.1,2.6,0.7,5.2,2.3,7.2
			c1.6,1.8,3.9,2.7,6.3,2.6c1.3,0,2.6-0.2,3.7-0.7c0.3-0.1,0.5-0.3,0.7-0.5c0.1-0.3,0.2-0.6,0.2-0.9L168.1,21.7z"/>
		<path class="st0" d="M76,7.4V0.6h-2.1c-0.7,0.1-1,0.7-1.1,1.8h-0.2V0.1h8.3v1.1v1.1h-0.2c-0.1-0.5-0.3-1-0.6-1.4
			c-0.2-0.2-0.5-0.4-0.9-0.4h-1.7v6.8c0,0.4,0.1,0.7,0.3,1c0.3,0.2,0.7,0.3,1.1,0.3v0.1h-4.2V8.7c0.4,0,0.8-0.1,1.1-0.3
			C76,8.1,76,7.8,76,7.4z"/>
		<path class="st0" d="M83.7,7.4V1.5c0-0.4-0.1-0.7-0.3-1c-0.2-0.2-0.6-0.3-0.9-0.3V0.2h3.7v0.1c-0.4-0.1-0.7,0-1,0.3
			c-0.2,0.3-0.3,0.6-0.3,1v2.6h3.8V1.5c0-0.4-0.1-0.7-0.4-1c-0.3-0.2-0.6-0.3-0.9-0.3V0.2h3.7v0.1c-0.3,0-0.6,0.1-0.8,0.3
			c-0.2,0.3-0.4,0.6-0.3,1v5.9c0,0.4,0.1,0.7,0.3,1c0.2,0.2,0.6,0.3,0.9,0.3v0.1h-3.7V8.7c0.3,0,0.7-0.1,0.9-0.3
			c0.3-0.3,0.4-0.6,0.3-1V4.7h-3.8v2.8c0,0.4,0.1,0.7,0.3,1c0.3,0.2,0.6,0.3,1,0.3v0.1h-3.8V8.7c0.3,0,0.6-0.1,0.9-0.3
			C83.6,8.1,83.7,7.8,83.7,7.4z"/>
		<path class="st0" d="M97.5,8.8h-4.9V8.7c0.3,0,0.6-0.1,0.8-0.3c0.2-0.3,0.4-0.6,0.3-1v-6c0-0.4,0-0.7-0.2-1
			c-0.2-0.2-0.5-0.4-0.9-0.3V0h6.6c0.1,0,0.2,0,0.2,0.1v1.8h-0.1c0-0.4-0.2-0.8-0.5-1.1c-0.5-0.3-1.1-0.4-1.7-0.3h-1.6
			c-0.1,0-0.3,0-0.4,0.1C95,0.7,95,0.9,95,1v2.9h1.8c0.4,0,0.9-0.1,1.2-0.3c0.3-0.2,0.4-0.6,0.4-0.9h0.1v2.9h-0.1
			c-0.1-0.4-0.2-0.7-0.5-1c-0.4-0.2-0.8-0.2-1.2-0.2H95v3.2c0,0.3,0.2,0.5,0.5,0.5c0,0,0.1,0,0.1,0h1.9L97.5,8.8z M97.5,8.8h1.4
			l0.8-1.2h-0.1c-0.3,0.4-0.8,0.6-1.2,0.6h-0.9L97.5,8.8z"/>
		<rect x="23.4" y="7.7" class="st0" width="48.1" height="0.4"/>
		<rect x="101.7" y="7.7" class="st0" width="48.1" height="0.4"/>
		<path class="st0" d="M60.3,34.8H64c0.3,0,0.6,0.1,0.9,0.3c0.2,0.2,0.3,0.5,0.3,0.8c0,0.2,0,0.3-0.1,0.5c-0.1,0.1-0.2,0.2-0.4,0.3
			l0,0c0.1,0,0.2,0.1,0.3,0.2c0.1,0.1,0.2,0.1,0.2,0.2c0,0.1,0.1,0.2,0.1,0.3c0,0.1,0,0.2,0,0.3c0,0.2,0,0.4-0.1,0.5
			c-0.1,0.2-0.1,0.3-0.3,0.4c-0.1,0.1-0.3,0.2-0.5,0.3c-0.2,0.1-0.5,0.1-0.7,0.1h-3.5V34.8z M61.9,36.3h1.2c0.2,0,0.3,0,0.3-0.1
			c0.1-0.1,0.1-0.1,0.1-0.2c0-0.1,0-0.1-0.1-0.2c0,0-0.2-0.1-0.3-0.1h-1.2V36.3z M61.9,37.9h1.4c0.1,0,0.2,0,0.3-0.1
			c0.1-0.1,0.1-0.1,0.1-0.2c0-0.1,0-0.2-0.1-0.2c-0.1-0.1-0.2-0.1-0.3-0.1h-1.4V37.9z"/>
		<path class="st0" d="M67.2,37.8l-1.8-2.9h1.8l0.8,1.6l0.8-1.6h1.8l-1.8,2.9v1.1h-1.6L67.2,37.8z"/>
		<path class="st0" d="M78.2,37.3c-0.1,0.2-0.1,0.5-0.2,0.7c-0.1,0.2-0.3,0.4-0.4,0.5c-0.2,0.2-0.5,0.3-0.8,0.3
			C76.4,39,76,39,75.6,39H75c-0.2,0-0.4,0-0.6-0.1c-0.2,0-0.4-0.1-0.6-0.2c-0.2-0.1-0.4-0.2-0.5-0.4c-0.2-0.2-0.3-0.4-0.4-0.6
			c-0.1-0.3-0.1-0.6-0.1-0.9c0-0.3,0.1-0.6,0.2-0.8c0.1-0.2,0.2-0.4,0.4-0.6c0.1-0.2,0.3-0.3,0.5-0.4c0.2-0.1,0.4-0.2,0.6-0.2
			c0.2,0,0.4-0.1,0.6-0.1h0.5h0.5c0.2,0,0.4,0,0.6,0.1c0.2,0,0.4,0.1,0.6,0.2c0.2,0.1,0.3,0.2,0.5,0.3c0.2,0.1,0.3,0.3,0.4,0.5
			c0.1,0.2,0.2,0.4,0.2,0.7h-1.8c0-0.1,0-0.2-0.1-0.2c0-0.1-0.1-0.2-0.1-0.2c-0.1-0.1-0.2-0.1-0.3-0.2c-0.1-0.1-0.3-0.1-0.4-0.1
			c-0.1,0-0.3,0-0.4,0.1c-0.1,0-0.2,0.1-0.3,0.2c-0.1,0.1-0.2,0.2-0.2,0.3c-0.1,0.2-0.1,0.4-0.1,0.5c0,0.2,0,0.4,0.1,0.5
			c0.1,0.3,0.3,0.5,0.5,0.6c0.1,0,0.3,0.1,0.4,0.1c0.2,0,0.4,0,0.6-0.2c0.2-0.1,0.3-0.3,0.3-0.5L78.2,37.3z"/>
		<path class="st0" d="M78.6,36.9c0-0.3,0-0.6,0.1-0.9c0.1-0.2,0.2-0.4,0.4-0.6c0.1-0.2,0.3-0.3,0.5-0.4c0.2-0.1,0.4-0.2,0.6-0.2
			c0.2,0,0.4-0.1,0.6-0.1h1.1c0.2,0,0.4,0,0.6,0.1c0.2,0.1,0.4,0.1,0.6,0.2c0.2,0.1,0.4,0.2,0.5,0.4c0.2,0.2,0.3,0.4,0.4,0.6
			c0.2,0.6,0.2,1.2,0,1.8c-0.1,0.2-0.2,0.4-0.4,0.6c-0.1,0.2-0.3,0.3-0.5,0.4c-0.2,0.1-0.4,0.2-0.6,0.2c-0.2,0-0.4,0.1-0.6,0.1h-1.1
			c-0.2,0-0.4,0-0.6-0.1c-0.2,0-0.4-0.1-0.6-0.2c-0.2-0.1-0.4-0.2-0.5-0.4c-0.2-0.2-0.3-0.4-0.4-0.6C78.6,37.5,78.6,37.2,78.6,36.9z
			 M80.3,36.9c0,0.2,0,0.4,0.1,0.5c0,0.1,0.1,0.3,0.2,0.4c0.1,0.1,0.2,0.2,0.3,0.2c0.1,0,0.3,0.1,0.4,0.1c0.1,0,0.3,0,0.4-0.1
			c0.1,0,0.2-0.1,0.3-0.2c0.1-0.1,0.2-0.2,0.2-0.4c0.1-0.2,0.1-0.3,0.1-0.5c0-0.2,0-0.4-0.1-0.5c0-0.1-0.1-0.3-0.2-0.3
			c-0.1-0.1-0.2-0.2-0.3-0.2c-0.1,0-0.3-0.1-0.4-0.1c-0.1,0-0.3,0-0.4,0.1c-0.1,0-0.2,0.1-0.3,0.2c-0.1,0.1-0.2,0.2-0.2,0.3
			C80.3,36.5,80.3,36.7,80.3,36.9z"/>
		<path class="st0" d="M84.7,34.8h3.4c0.2,0,0.4,0,0.6,0c0.1,0,0.2,0.1,0.4,0.2c0.1,0,0.2,0.1,0.2,0.2c0.1,0.1,0.1,0.1,0.2,0.2
			c0.1,0.1,0.1,0.2,0.1,0.3c0,0.1,0,0.2,0,0.3c0,0.1,0,0.2,0,0.3c0,0.1-0.1,0.2-0.1,0.3c-0.1,0.1-0.1,0.2-0.2,0.2
			c-0.1,0.1-0.2,0.1-0.3,0.1l0,0c0.1,0,0.2,0.1,0.3,0.2c0.1,0.1,0.1,0.3,0.2,0.4l0.1,0.9c0,0.1,0,0.2,0.1,0.3c0,0.1,0.1,0.2,0.1,0.2
			h-1.7v-0.1c0,0,0-0.1,0-0.2s0-0.1,0-0.2s0-0.2,0-0.3c0-0.1,0-0.2-0.1-0.3c-0.1-0.1-0.2-0.1-0.3-0.1h-1.2v1.2h-1.6V34.8z
			 M86.3,36.6h1.1c0.1,0,0.2,0,0.3-0.1c0.1-0.1,0.1-0.2,0.1-0.3c0-0.1,0-0.2-0.1-0.3c-0.1-0.1-0.2-0.1-0.3-0.1h-1.1L86.3,36.6z"/>
		<path class="st0" d="M90.2,34.8h3.4c0.2,0,0.4,0,0.6,0c0.1,0,0.3,0.1,0.4,0.1c0.1,0,0.2,0.1,0.2,0.2c0.1,0.1,0.1,0.1,0.2,0.2
			c0.1,0.1,0.1,0.2,0.1,0.3c0,0.1,0,0.3,0,0.4c0,0.1,0,0.2,0,0.3c0,0.1-0.1,0.2-0.1,0.3c-0.1,0.1-0.1,0.2-0.2,0.2
			c-0.1,0.1-0.2,0.1-0.3,0.1l0,0c0.1,0,0.2,0.1,0.3,0.2c0.1,0.1,0.1,0.3,0.2,0.4l0.1,0.9c0,0.1,0,0.2,0.1,0.3c0,0.1,0.1,0.2,0.1,0.2
			h-1.7c0,0,0-0.1,0-0.1c0,0,0-0.1,0-0.2c0-0.1,0-0.1,0-0.2s0-0.2,0-0.3c0-0.1,0-0.2-0.1-0.3c-0.1-0.1-0.2-0.1-0.3-0.1h-1.2v1.2
			h-1.6V34.8z M91.8,36.6h1.1c0.1,0,0.2,0,0.3-0.1c0.1-0.1,0.1-0.2,0.1-0.3c0-0.1,0-0.2-0.1-0.3c-0.1-0.1-0.2-0.1-0.3-0.1h-1.1V36.6
			z"/>
		<path class="st0" d="M96.8,34.8h2l1.7,4h-1.7l-0.2-0.5h-1.7l-0.2,0.5H95L96.8,34.8z M97.8,36.1L97.8,36.1l-0.5,1.4h1L97.8,36.1z"
			/>
		<path class="st0" d="M100.7,34.8h3.1c0.3,0,0.6,0,0.9,0.1c0.2,0.1,0.5,0.2,0.7,0.3c0.2,0.2,0.3,0.4,0.4,0.6c0.1,0.3,0.1,0.6,0.1,1
			c0,0.6-0.1,1.1-0.5,1.5c-0.4,0.3-1,0.5-1.5,0.5h-3.1L100.7,34.8z M102.2,37.8h0.9c0.5,0.1,0.9-0.3,1-0.8c0-0.1,0-0.2,0-0.2
			c0-0.3-0.1-0.5-0.2-0.8c-0.2-0.2-0.5-0.3-0.8-0.3h-0.9L102.2,37.8z"/>
		<path class="st0" d="M106.2,36.9c0-0.3,0-0.6,0.1-0.9c0.1-0.2,0.2-0.4,0.4-0.6c0.1-0.2,0.3-0.3,0.5-0.4c0.2-0.1,0.4-0.2,0.6-0.2
			c0.2,0,0.4-0.1,0.6-0.1h1.1c0.2,0,0.4,0,0.6,0.1c0.2,0,0.4,0.1,0.6,0.2c0.2,0.1,0.4,0.2,0.5,0.4c0.2,0.2,0.3,0.4,0.4,0.6
			c0.2,0.6,0.2,1.2,0,1.8c-0.1,0.2-0.2,0.4-0.4,0.6c-0.1,0.2-0.3,0.3-0.5,0.4c-0.2,0.1-0.4,0.2-0.6,0.2c-0.2,0-0.4,0.1-0.6,0.1h-1.1
			c-0.2,0-0.4,0-0.6-0.1c-0.2,0-0.4-0.1-0.6-0.2c-0.2-0.1-0.4-0.2-0.5-0.4c-0.2-0.2-0.3-0.4-0.4-0.6
			C106.2,37.5,106.2,37.2,106.2,36.9z M107.9,36.9c0,0.2,0,0.4,0.1,0.5c0,0.1,0.1,0.3,0.2,0.4c0.1,0.1,0.2,0.2,0.3,0.2
			c0.2,0,0.3,0.1,0.5,0c0.2,0,0.3,0,0.4-0.1c0.1,0,0.2-0.1,0.3-0.2c0.1-0.1,0.2-0.2,0.2-0.4c0.1-0.2,0.1-0.3,0.1-0.5
			c0-0.2,0-0.4-0.1-0.5c0-0.1-0.1-0.3-0.2-0.3c-0.1-0.1-0.2-0.2-0.3-0.2c-0.1,0-0.3-0.1-0.4-0.1c-0.1,0-0.3,0-0.4,0.1
			c-0.1,0-0.2,0.1-0.3,0.2c-0.1,0.1-0.2,0.2-0.2,0.3C107.9,36.5,107.9,36.7,107.9,36.9z"/>
	</g>
</g>
</svg>
